<svg width="24" height="24" viewBox="0 0 24 24" fill="none" xmlns="http://www.w3.org/2000/svg">
<path d="M5.9625 4.34906C7.36861 3.23483 9.05611 2.53224 10.8375 2.31937C10.8902 2.31341 10.9435 2.31868 10.994 2.33484C11.0445 2.35099 11.091 2.37767 11.1304 2.4131C11.1698 2.44854 11.2013 2.49193 11.2227 2.54041C11.2441 2.58889 11.255 2.64137 11.2547 2.69437V11.25H8.97188C8.78552 8.83518 7.70509 6.57672 5.94188 4.91625C5.90243 4.87959 5.87134 4.83486 5.85073 4.78511C5.83011 4.73536 5.82046 4.68175 5.82241 4.62794C5.82437 4.57412 5.8379 4.52136 5.86207 4.47323C5.88624 4.42511 5.9205 4.38276 5.9625 4.34906ZM4.3125 6.00656C3.21892 7.40213 2.52861 9.07066 2.31656 10.8309C2.31031 10.8838 2.31537 10.9373 2.33139 10.988C2.34742 11.0387 2.37405 11.0854 2.40952 11.1251C2.44498 11.1647 2.48847 11.1963 2.5371 11.2179C2.58573 11.2394 2.63838 11.2504 2.69156 11.25H7.46531C7.28031 9.22679 6.3541 7.34332 4.86469 5.96156C4.82654 5.92603 4.7814 5.89885 4.73215 5.88175C4.6829 5.86464 4.63063 5.858 4.57867 5.86223C4.52671 5.86647 4.4762 5.88149 4.43037 5.90634C4.38454 5.93119 4.3444 5.96533 4.3125 6.00656ZM18.0375 4.34906C16.6314 3.23483 14.9439 2.53224 13.1625 2.31937C13.1098 2.31341 13.0565 2.31868 13.006 2.33484C12.9555 2.35099 12.909 2.37767 12.8696 2.4131C12.8302 2.44854 12.7987 2.49193 12.7773 2.54041C12.7559 2.58889 12.745 2.64137 12.7453 2.69437V11.25H15.0234C15.2098 8.83518 16.2902 6.57672 18.0534 4.91625C18.0932 4.87992 18.1246 4.83546 18.1456 4.78589C18.1666 4.73633 18.1767 4.68282 18.1752 4.62901C18.1737 4.5752 18.1606 4.52234 18.1368 4.47404C18.1131 4.42573 18.0792 4.38311 18.0375 4.34906ZM21.6806 10.8309C21.4694 9.07094 20.7801 7.40244 19.6875 6.00656C19.6556 5.96576 19.6156 5.93201 19.57 5.90744C19.5245 5.88286 19.4743 5.86799 19.4227 5.86376C19.3711 5.85953 19.3191 5.86604 19.2702 5.88287C19.2212 5.8997 19.1762 5.9265 19.1381 5.96156C17.6477 7.34288 16.7204 9.22639 16.5347 11.25H21.3075C21.3605 11.2501 21.413 11.239 21.4614 11.2173C21.5098 11.1956 21.553 11.164 21.5883 11.1244C21.6236 11.0848 21.65 11.0381 21.6659 10.9876C21.6818 10.937 21.6869 10.8836 21.6806 10.8309ZM2.31938 13.1691C2.53061 14.9291 3.21993 16.5976 4.3125 17.9934C4.34439 18.0342 4.38439 18.068 4.42997 18.0926C4.47555 18.1171 4.52572 18.132 4.57733 18.1362C4.62895 18.1405 4.68087 18.134 4.72984 18.1171C4.77882 18.1003 4.82377 18.0735 4.86188 18.0384C6.35233 16.6571 7.27957 14.7736 7.46531 12.75H2.6925C2.63948 12.7499 2.58703 12.761 2.53863 12.7827C2.49023 12.8044 2.44697 12.836 2.41171 12.8756C2.37645 12.9152 2.34998 12.9619 2.33407 13.0124C2.31815 13.063 2.31315 13.1164 2.31938 13.1691ZM19.6875 17.9934C20.7811 16.5979 21.4714 14.9293 21.6834 13.1691C21.6897 13.1162 21.6846 13.0627 21.6686 13.012C21.6526 12.9613 21.626 12.9146 21.5905 12.8749C21.555 12.8353 21.5115 12.8037 21.4629 12.7821C21.4143 12.7606 21.3616 12.7496 21.3084 12.75H16.5347C16.7197 14.7732 17.6459 16.6567 19.1353 18.0384C19.1735 18.074 19.2186 18.1011 19.2679 18.1183C19.3171 18.1354 19.3694 18.142 19.4213 18.1378C19.4733 18.1335 19.5238 18.1185 19.5696 18.0937C19.6155 18.0688 19.6556 18.0347 19.6875 17.9934ZM5.9625 19.6509C7.36861 20.7652 9.05611 21.4678 10.8375 21.6806C10.8902 21.6866 10.9435 21.6813 10.994 21.6652C11.0445 21.649 11.091 21.6223 11.1304 21.5869C11.1698 21.5515 11.2013 21.5081 11.2227 21.4596C11.2441 21.4111 11.255 21.3586 11.2547 21.3056V12.75H8.97188C8.78552 15.1648 7.70509 17.4233 5.94188 19.0837C5.90243 19.1204 5.87134 19.1651 5.85073 19.2149C5.83011 19.2646 5.82046 19.3182 5.82241 19.3721C5.82437 19.4259 5.8379 19.4786 5.86207 19.5268C5.88624 19.5749 5.9205 19.6172 5.9625 19.6509ZM15.0281 12.75H12.75V21.3075C12.7497 21.3605 12.7606 21.413 12.782 21.4615C12.8034 21.5099 12.8349 21.5533 12.8743 21.5888C12.9137 21.6242 12.9602 21.6509 13.0107 21.667C13.0612 21.6832 13.1145 21.6885 13.1672 21.6825C14.9486 21.4696 16.6361 20.767 18.0422 19.6528C18.0842 19.6191 18.1184 19.5768 18.1426 19.5286C18.1668 19.4805 18.1803 19.4278 18.1823 19.3739C18.1842 19.3201 18.1746 19.2665 18.154 19.2168C18.1333 19.167 18.1023 19.1223 18.0628 19.0856C16.2975 17.4254 15.2153 15.1661 15.0281 12.75Z" fill="#0F141B"/>
</svg>
