<svg width="24" height="24" viewBox="0 0 24 24" fill="none" xmlns="http://www.w3.org/2000/svg">
<path d="M14.34 17.77L15.75 16.36L20 20.58L18.56 22L14.34 17.77ZM18.5 2C19.4283 2 20.3185 2.36875 20.9749 3.02513C21.6313 3.6815 22 4.57174 22 5.5C22 6.42826 21.6313 7.3185 20.9749 7.97487C20.3185 8.63125 19.4283 9 18.5 9C17.5718 9 16.6815 8.63125 16.0251 7.97487C15.3688 7.3185 15 6.42826 15 5.5C15 4.57174 15.3688 3.6815 16.0251 3.02513C16.6815 2.36875 17.5718 2 18.5 2ZM2.24001 7.11L5.07001 4.28C5.26077 4.09251 5.51754 3.98744 5.78501 3.98744C6.05248 3.98744 6.30925 4.09251 6.50001 4.28L14.97 12.77C15.36 13.16 15.36 13.79 14.97 14.18L12.14 17C12.0477 17.095 11.9374 17.1704 11.8154 17.222C11.6935 17.2735 11.5624 17.3001 11.43 17.3001C11.2976 17.3001 11.1666 17.2735 11.0446 17.222C10.9227 17.1704 10.8123 17.095 10.72 17L2.24001 8.53C1.85001 8.13 1.85001 7.5 2.24001 7.11Z" fill="#0F141B"/>
</svg>
