<svg width="24" height="24" viewBox="0 0 24 24" fill="none" xmlns="http://www.w3.org/2000/svg">
<path d="M11.7 2C12.67 2.03 13.42 2.84 13.39 3.8C13.38 4.04 13.33 4.27 13.23 4.5L12.94 5.14C12.9 5.27 12.97 5.41 13.11 5.45C13.2 5.5 13.3 5.45 13.37 5.37L13.79 4.82C14.12 4.4 14.62 4.14 15.15 4.13C16.12 4.11 16.92 4.88 16.94 5.84C16.95 6.26 16.81 6.66 16.55 7L16.13 7.5H16.12C16.04 7.63 16.07 7.79 16.18 7.87C16.27 7.94 16.39 7.94 16.47 7.87L17 7.45C17.34 7.19 17.75 7.05 18.16 7.06C19.12 7.08 19.89 7.88 19.87 8.85C19.86 9.38 19.6 9.88 19.18 10.21L18.61 10.65C18.5 10.75 18.5 10.91 18.62 11C18.6529 11.0341 18.6955 11.0572 18.7421 11.0662C18.7886 11.0751 18.8368 11.0695 18.88 11.05H18.89L19.5 10.77C19.73 10.68 19.96 10.62 20.2 10.61C21.16 10.58 21.97 11.34 22 12.31C22 13.03 21.6 13.69 20.94 13.97L9.55 19.04L4.96 14.45L10.03 3.06C10.31 2.39 11 1.97 11.7 2ZM10.87 6.1C10.45 6.09 10.07 6.33 9.91 6.71L6.86 13.55L10.81 9.61L11.74 7.5C12.04 6.87 11.58 6.12 10.87 6.1ZM14.15 8.85C13.88 8.85 13.63 8.95 13.44 9.15L8.63 13.96C8.23 14.34 8.22 14.97 8.6 15.37C9 15.77 9.62 15.78 10.04 15.37L14.85 10.56C14.9451 10.4694 15.0212 10.3608 15.0738 10.2405C15.1264 10.1201 15.1544 9.99052 15.1563 9.8592C15.1581 9.72789 15.1338 9.59752 15.0846 9.47574C15.0355 9.35397 14.9625 9.24322 14.87 9.15C14.68 8.95 14.42 8.85 14.15 8.85ZM16.87 12.17C16.74 12.17 16.6 12.21 16.5 12.26L14.37 13.2L10.43 17.14L17.29 14.09C18.31 13.65 17.97 12.14 16.87 12.17ZM3.72 16.04L7.96 20.28L7.11 21.13C6.35 21.88 5.25 22.17 4.22 21.9C3.71264 21.7618 3.25017 21.4935 2.87834 21.1217C2.50652 20.7498 2.23822 20.2874 2.1 19.78C1.83 18.75 2.12 17.65 2.87 16.89L3.72 16.04Z" fill="#0F141B"/>
</svg>
