<svg width="24" height="24" viewBox="0 0 24 24" fill="none" xmlns="http://www.w3.org/2000/svg">
<path d="M18.0703 1.42406C17.2032 1.43156 16.1719 1.65937 15.0563 2.09156C12.675 3.01641 9.89534 4.875 7.33128 7.43906C4.76253 10.0031 2.90346 12.7875 1.9819 15.1688C1.51831 16.3594 1.29284 17.4469 1.31253 18.3516C1.33268 19.2422 1.5844 19.9359 2.06487 20.4141C2.54581 20.8969 3.23487 21.1453 4.13018 21.1688C5.02971 21.1875 6.11721 20.9625 7.31253 20.4984C9.69378 19.575 12.4735 17.7141 15.0375 15.15C17.6016 12.5859 19.4625 9.80625 20.386 7.42031C20.85 6.22969 21.075 5.14219 21.0563 4.24266C21.0328 3.34781 20.7844 2.65828 20.3016 2.17781C19.8188 1.69687 19.1297 1.44516 18.2391 1.42547C18.1828 1.42406 18.1266 1.42359 18.0703 1.42406ZM21.1922 1.92563C21.6563 2.55187 21.8813 3.34594 21.9 4.22625C21.9235 5.27813 21.6657 6.46406 21.1688 7.725C20.1938 10.2562 18.2719 13.1109 15.6375 15.7453C12.9985 18.3844 10.1438 20.3016 7.61253 21.2812C6.35159 21.7781 5.16565 22.0312 4.11331 22.0125C3.40737 21.9984 2.75721 21.8484 2.20456 21.5531C2.24206 21.5953 2.2805 21.6375 2.32034 21.675C3.53675 22.8938 5.7094 23.0531 8.3344 22.1766C10.9594 21.3047 13.9735 19.4016 16.6875 16.6828C19.4016 13.9687 21.3047 10.9594 22.1766 8.33437C23.0578 5.70937 22.8938 3.53672 21.675 2.32031C21.5297 2.17312 21.3657 2.04188 21.1922 1.92563ZM14.0485 5.74219C14.4141 5.74219 14.7657 5.85 15.0188 6.10312C15.3328 6.41719 15.4172 6.87188 15.3657 7.32656C15.3188 7.78125 15.1453 8.27344 14.8828 8.80781C14.3578 9.87656 13.4578 11.1047 12.2813 12.2812C11.1047 13.4578 9.87659 14.3578 8.80784 14.8828C8.27815 15.1453 7.78128 15.3187 7.32659 15.3656C6.8719 15.4172 6.41721 15.3328 6.10315 15.0187C5.78909 14.7047 5.70471 14.25 5.75628 13.7953C5.80315 13.3406 5.97659 12.8438 6.23909 12.3094C6.76409 11.2406 7.66409 10.0172 8.84065 8.84063C10.0172 7.66406 11.2453 6.75937 12.3141 6.23437C12.8485 5.97188 13.3407 5.80312 13.7953 5.75625C13.8797 5.74688 13.9641 5.74219 14.0485 5.74219Z" fill="#0F141B"/>
</svg>
