<svg width="24" height="24" viewBox="0 0 24 24" fill="none" xmlns="http://www.w3.org/2000/svg">
<path d="M18 15C19.0609 15 20.0783 15.4214 20.8284 16.1716C21.5786 16.9217 22 17.9391 22 19C22 20.0609 21.5786 21.0783 20.8284 21.8284C20.0783 22.5786 19.0609 23 18 23C16.9391 23 15.9217 22.5786 15.1716 21.8284C14.4214 21.0783 14 20.0609 14 19C14 17.9391 14.4214 16.9217 15.1716 16.1716C15.9217 15.4214 16.9391 15 18 15ZM18 17C17.4696 17 16.9609 17.2107 16.5858 17.5858C16.2107 17.9609 16 18.4696 16 19C16 19.5304 16.2107 20.0391 16.5858 20.4142C16.9609 20.7893 17.4696 21 18 21C18.5304 21 19.0391 20.7893 19.4142 20.4142C19.7893 20.0391 20 19.5304 20 19C20 18.4696 19.7893 17.9609 19.4142 17.5858C19.0391 17.2107 18.5304 17 18 17ZM6.05 14.54C6.05 14.54 7.46 13.12 7.47 10.3C7.11 8.11 7.97 5.54 9.94 3.58C12.87 0.65 17.14 0.17 19.5 2.5C21.83 4.86 21.35 9.13 18.42 12.06C16.46 14.03 13.89 14.89 11.7 14.53C8.88 14.54 7.46 15.95 7.46 15.95L3.22 20.19L1.81 18.78L6.05 14.54ZM18.07 3.93C16.5 2.37 13.5 2.84 11.35 5C9.21 7.14 8.73 10.15 10.29 11.71C11.86 13.27 14.86 12.79 17 10.65C19.16 8.5 19.63 5.5 18.07 3.93Z" fill="#0F141B"/>
</svg>
